<?xml version="1.0" encoding="UTF-8" standalone="no"?>
<svg
   xmlns:dc="http://purl.org/dc/elements/1.1/"
   xmlns:cc="http://creativecommons.org/ns#"
   xmlns:rdf="http://www.w3.org/1999/02/22-rdf-syntax-ns#"
   xmlns:svg="http://www.w3.org/2000/svg"
   xmlns="http://www.w3.org/2000/svg"
   xmlns:xlink="http://www.w3.org/1999/xlink"
   xmlns:sodipodi="http://sodipodi.sourceforge.net/DTD/sodipodi-0.dtd"
   xmlns:inkscape="http://www.inkscape.org/namespaces/inkscape"
   sodipodi:docname="favicon.svg"
   inkscape:version="1.0rc1 (09960d6f05, 2020-04-09)"
   id="svg8"
   version="1.1"
   viewBox="0 0 8.4666665 8.4666669"
   height="32"
   width="32">
  <defs
     id="defs2">
    <linearGradient
       id="linearGradient890"
       inkscape:collect="always">
      <stop
         id="stop886"
         offset="0"
         style="stop-color:#4d4d4d;stop-opacity:1" />
      <stop
         id="stop888"
         offset="1"
         style="stop-color:#000000;stop-opacity:1" />
    </linearGradient>
    <linearGradient
       id="linearGradient882"
       inkscape:collect="always">
      <stop
         id="stop878"
         offset="0"
         style="stop-color:#333333;stop-opacity:1" />
      <stop
         id="stop880"
         offset="1"
         style="stop-color:#f9f9f9;stop-opacity:1" />
    </linearGradient>
    <linearGradient
       gradientUnits="userSpaceOnUse"
       y2="4.6667285"
       x2="4.7655683"
       y1="1.5146644"
       x1="2.8088059"
       id="linearGradient884"
       xlink:href="#linearGradient882"
       inkscape:collect="always" />
    <radialGradient
       gradientUnits="userSpaceOnUse"
       gradientTransform="matrix(1.0106429,1.110212,-0.90481522,0.8236671,2.2980932,-4.1034423)"
       r="0.56107885"
       fy="3.3665304"
       fx="3.8980806"
       cy="3.3665304"
       cx="3.8980806"
       id="radialGradient892"
       xlink:href="#linearGradient890"
       inkscape:collect="always" />
    <clipPath
       id="clipPath911"
       clipPathUnits="userSpaceOnUse">
      <path
         sodipodi:nodetypes="sssss"
         inkscape:connector-curvature="0"
         d="M 5.5708111,4.1585809 C 5.0522251,4.6464159 4.2631368,4.9783235 3.3110977,4.5431877 2.3590587,4.1080521 2.0251608,3.288016 2.1231728,2.582815 2.2316622,1.8022279 2.4354358,1.4371153 4.3828862,2.198208 c 1.12753,0.4406556 2.3081511,0.9065737 1.1879249,1.9603729 z"
         style="opacity:1;fill:none;fill-opacity:1;stroke:#000000;stroke-width:0.264583;stroke-linecap:round;stroke-miterlimit:4;stroke-dasharray:none;stroke-opacity:1"
         id="path913" />
    </clipPath>
    <clipPath
       clipPathUnits="userSpaceOnUse"
       id="clipPath911-6">
      <path
         id="path913-2"
         style="opacity:1;fill:none;fill-opacity:1;stroke:#000000;stroke-width:0.264583;stroke-linecap:round;stroke-miterlimit:4;stroke-dasharray:none;stroke-opacity:1"
         d="M 5.5708111,4.1585809 C 5.0522251,4.6464159 4.2631368,4.9783235 3.3110977,4.5431877 2.3590587,4.1080521 2.0251608,3.288016 2.1231728,2.582815 2.2316622,1.8022279 2.4354358,1.4371153 4.3828862,2.198208 c 1.12753,0.4406556 2.3081511,0.9065737 1.1879249,1.9603729 z"
         inkscape:connector-curvature="0"
         sodipodi:nodetypes="sssss" />
    </clipPath>
    <clipPath
       clipPathUnits="userSpaceOnUse"
       id="clipPath911-61">
      <path
         id="path913-8"
         style="opacity:1;fill:none;fill-opacity:1;stroke:#000000;stroke-width:0.264583;stroke-linecap:round;stroke-miterlimit:4;stroke-dasharray:none;stroke-opacity:1"
         d="M 5.5708111,4.1585809 C 5.0522251,4.6464159 4.2631368,4.9783235 3.3110977,4.5431877 2.3590587,4.1080521 2.0251608,3.288016 2.1231728,2.582815 2.2316622,1.8022279 2.4354358,1.4371153 4.3828862,2.198208 c 1.12753,0.4406556 2.3081511,0.9065737 1.1879249,1.9603729 z"
         inkscape:connector-curvature="0"
         sodipodi:nodetypes="sssss" />
    </clipPath>
    <clipPath
       clipPathUnits="userSpaceOnUse"
       id="clipPath911-9">
      <path
         id="path913-7"
         style="opacity:1;fill:none;fill-opacity:1;stroke:#000000;stroke-width:0.264583;stroke-linecap:round;stroke-miterlimit:4;stroke-dasharray:none;stroke-opacity:1"
         d="M 5.5708111,4.1585809 C 5.0522251,4.6464159 4.2631368,4.9783235 3.3110977,4.5431877 2.3590587,4.1080521 2.0251608,3.288016 2.1231728,2.582815 2.2316622,1.8022279 2.4354358,1.4371153 4.3828862,2.198208 c 1.12753,0.4406556 2.3081511,0.9065737 1.1879249,1.9603729 z"
         inkscape:connector-curvature="0"
         sodipodi:nodetypes="sssss" />
    </clipPath>
  </defs>
  <sodipodi:namedview
     inkscape:window-maximized="1"
     inkscape:window-y="52"
     inkscape:window-x="12"
     inkscape:window-height="1012"
     inkscape:window-width="1892"
     inkscape:snap-global="false"
     inkscape:pagecheckerboard="true"
     units="px"
     showgrid="false"
     inkscape:document-rotation="0"
     inkscape:current-layer="layer1"
     inkscape:document-units="mm"
     inkscape:cy="18.938786"
     inkscape:cx="17.624096"
     inkscape:zoom="16"
     inkscape:pageshadow="2"
     inkscape:pageopacity="0.0"
     borderopacity="1.0"
     bordercolor="#666666"
     pagecolor="#ffffff"
     id="base" />
  <metadata
     id="metadata5">
    <rdf:RDF>
      <cc:Work
         rdf:about="">
        <dc:format>image/svg+xml</dc:format>
        <dc:type
           rdf:resource="http://purl.org/dc/dcmitype/StillImage" />
        <dc:title></dc:title>
      </cc:Work>
    </rdf:RDF>
  </metadata>
  <g
     style="display:inline"
     id="layer1"
     inkscape:groupmode="layer"
     inkscape:label="Layer 1">
    <g
       transform="translate(0.2599486,0.22574678)"
       id="g1157">
      <path
         id="path14-9"
         style="display:inline;fill:#ffffff;fill-opacity:1;stroke:#ffffff;stroke-width:0.345331;stroke-linecap:round;stroke-miterlimit:4;stroke-dasharray:none;stroke-opacity:1"
         d="M 5.1646722,3.9975728 C 4.487819,4.6342904 3.4579087,5.0674931 2.2153167,4.4995584 0.97272456,3.9316233 0.53692438,2.8613204 0.66484876,1.940899 0.80644793,0.92208448 1.0724113,0.44554298 3.6142044,1.4389138 5.0858455,2.0140531 6.6267805,2.6221647 5.1646722,3.9975728 Z"
         inkscape:connector-curvature="0"
         sodipodi:nodetypes="sssss" />
      <path
         inkscape:connector-curvature="0"
         d="M 5.5745501,3.388619 C 5.5084077,3.5923058 5.3562988,3.8184068 5.0831072,4.0753988 4.6693431,4.4646278 4.1093884,4.7685849 3.4434139,4.7678631 5.2195065,5.9693055 6.9101404,4.3212401 5.6577491,7.2845054 6.2331517,6.651332 8.0945846,5.072503 6.9238216,4.1952881 6.4775751,3.8499727 6.028895,3.5594856 5.5745501,3.388619 Z"
         style="display:inline;fill:#ffffff;fill-opacity:1;stroke:#ffffff;stroke-width:0.320093px;stroke-linecap:butt;stroke-linejoin:miter;stroke-opacity:1"
         id="path934-6-4" />
      <g
         id="g970"
         transform="translate(-0.20517159,-0.18272611)">
        <path
           transform="matrix(1.1823405,0,0,1.1823405,-1.3920713,-0.83380442)"
           clip-path="url(#clipPath911)"
           id="path840-3"
           style="fill:url(#linearGradient884);fill-opacity:1;stroke:none;stroke-width:0.042;stroke-linecap:round;stroke-miterlimit:4;stroke-dasharray:none;stroke-opacity:1"
           d="M 5.821835,2.6232117 A 1.872461,1.8332678 0 0 1 3.9493742,4.4564788 1.872461,1.8332678 0 0 1 2.0769136,2.6232117 1.872461,1.8332678 0 0 1 3.9493742,0.7899434 1.872461,1.8332678 0 0 1 5.821835,2.6232117 Z"
           inkscape:connector-curvature="0" />
        <path
           inkscape:connector-curvature="0"
           d="M 3.8670517,3.0607162 A 0.57276757,0.59589923 0 0 1 3.2942842,3.6566153 0.57276757,0.59589923 0 0 1 2.7215167,3.0607162 0.57276757,0.59589923 0 0 1 3.2942842,2.4648168 0.57276757,0.59589923 0 0 1 3.8670517,3.0607162 Z"
           style="fill:url(#radialGradient892);fill-opacity:1;stroke:none;stroke-width:0.181237;stroke-linecap:round;stroke-miterlimit:4;stroke-dasharray:none;stroke-opacity:1"
           id="path840" />
        <path
           id="path14"
           style="display:inline;fill:none;fill-opacity:1;stroke:#000000;stroke-width:0.312827;stroke-linecap:round;stroke-miterlimit:4;stroke-dasharray:none;stroke-opacity:1"
           d="M 5.1945243,4.0830542 C 4.5813792,4.6598414 3.6484081,5.0522693 2.5227737,4.5377909 1.3971393,4.0233121 1.0023583,3.0537502 1.1182419,2.2199625 1.2465133,1.2970427 1.4874431,0.86535534 3.7899926,1.765226 5.1231171,2.286231 6.5190132,2.8371048 5.1945243,4.0830542 Z"
           inkscape:connector-curvature="0"
           sodipodi:nodetypes="sssss" />
        <path
           inkscape:connector-curvature="0"
           d="M 5.7900224,3.5228201 C 5.72388,3.7265069 5.5717711,3.9526079 5.2985795,4.2095999 4.8848154,4.5988289 4.3248607,4.902786 3.6588862,4.9020642 5.4349788,6.1035066 7.1256127,4.4554412 5.8732214,7.4187065 6.448624,6.7855331 8.3100569,5.2067041 7.1392939,4.3294892 6.6930474,3.9841738 6.2443673,3.6936867 5.7900224,3.5228201 Z"
           style="display:inline;fill:#009a90;fill-opacity:1;stroke:none;stroke-width:0.320093px;stroke-linecap:butt;stroke-linejoin:miter;stroke-opacity:1"
           id="path934-6" />
      </g>
    </g>
  </g>
</svg>
